<?xml version="1.0" standalone="no"?>
<!DOCTYPE svg PUBLIC "-//W3C//DTD SVG 20010904//EN"
 "http://www.w3.org/TR/2001/REC-SVG-20010904/DTD/svg10.dtd">
<svg version="1.0" xmlns="http://www.w3.org/2000/svg"
 width="1013.000000pt" height="466.000000pt" viewBox="0 0 1013.000000 466.000000"
 preserveAspectRatio="xMidYMid meet">

<g transform="translate(0.000000,466.000000) scale(0.100000,-0.100000)"
fill="#000000" stroke="none">
<path d="M6243 4605 c-207 -45 -303 -157 -303 -355 0 -135 30 -426 50 -493 41
-131 157 -244 298 -287 291 -90 1010 -144 1832 -138 450 3 470 1 593 -64 141
-75 220 -211 262 -448 30 -171 55 -1018 35 -1220 -22 -229 -73 -374 -164 -466
-71 -70 -127 -88 -271 -87 -2655 27 -7998 83 -8208 86 -258 4 -290 3 -308 -12
l-21 -17 31 -412 c21 -286 35 -420 45 -439 32 -62 79 -86 237 -117 267 -53
481 -65 1329 -76 1089 -13 1579 -1 2900 70 1277 69 1599 80 2315 80 522 0 802
-7 1245 -30 332 -17 446 -29 730 -75 416 -67 547 -78 683 -55 123 20 230 94
285 198 54 101 74 206 92 482 11 176 50 782 76 1170 8 129 28 375 44 545 64
675 63 932 -5 1192 -34 129 -75 206 -154 284 -77 77 -161 126 -286 168 -156
52 -307 72 -725 96 -446 26 -741 61 -1175 141 -248 46 -387 79 -630 154 -244
74 -361 104 -485 125 -115 18 -263 18 -347 0z m449 -129 c64 -14 228 -60 365
-101 459 -139 1054 -241 1618 -279 127 -9 300 -21 385 -26 305 -21 462 -51
595 -115 191 -91 262 -211 301 -509 19 -146 14 -558 -10 -781 -27 -252 -55
-618 -106 -1377 -28 -411 -57 -782 -65 -824 -19 -100 -53 -173 -105 -223 -60
-58 -123 -75 -275 -74 -141 2 -217 10 -545 63 -268 43 -371 54 -650 70 -648
36 -1355 48 -1930 31 -469 -14 -798 -28 -1690 -76 -1320 -70 -1538 -77 -2390
-76 -1108 1 -1527 18 -1807 72 -130 25 -183 45 -183 69 0 10 -11 172 -25 360
-14 188 -24 344 -22 347 3 2 1917 -16 4255 -40 2341 -25 4273 -41 4301 -36
160 25 285 150 350 348 52 160 56 211 54 720 -2 609 -17 812 -75 991 -55 173
-162 307 -299 373 -145 71 -122 69 -859 77 -701 8 -862 16 -1245 65 -285 37
-385 67 -468 144 -79 73 -94 132 -118 451 -18 259 15 329 180 376 80 23 323
13 463 -20z"/>
</g>
</svg>
